# File created by Blade
# Date/Time:  Tue Jan 27 17:16:36 2015
#---------------------------------------------------------
:version 1.10
:name HOM
:units
  mass 1.0
  length 1.000000
  angle deg
:documentation
     Acclaim Skeleton File
:root
   axis xyz
   order TX TY TZ RX RY RZ
   position 0.000000 0.000000 0.000000
   orientation 0 0 0
:bonedata
   begin
      id 1
      name Spine_dum
      direction 0.000000 1.000000 0.000000
      length 7.539951
      axis 0.0 0.0 0.0 xyz
   end
   begin
      id 2
      name LeftUpLeg_dum
      direction 1.000000 0.000000 0.000000
      length 3.345476
      axis 0.0 0.0 0.0 xyz
   end
   begin
      id 3
      name RightUpLeg_dum
      direction -1.000000 0.000000 0.000000
      length 3.345476
      axis 0.0 0.0 0.0 xyz
   end
   begin
      id 4
      name Spine
      direction 0.000000 1.000000 0.000000
      length 0.000000
      axis 0.0 0.0 0.0 xyz
      dof rx ry rz
   end
   begin
      id 5
      name Spine_dum1
      direction 0.000000 1.000000 0.000000
      length 15.093809
      axis 0.0 0.0 0.0 xyz
   end
   begin
      id 6
      name Spine_dum2
      direction 0.000000 1.000000 0.000000
      length 9.738928
      axis 0.0 0.0 0.0 xyz
   end
   begin
      id 7
      name Spine_dum3
      direction 0.000000 1.000000 0.000000
      length 9.738928
      axis 0.0 0.0 0.0 xyz
   end
   begin
      id 8
      name Head
      direction 0.000000 1.000000 0.000000
      length 4.527550
      axis 0.0 0.0 0.0 xyz
      dof rx ry rz
   end
   begin
      id 9
      name LeftShoulder
      direction 1.000000 0.000000 0.000000
      length 7.084015
      axis 0.0 0.0 -90.0 xyz
      dof rx ry rz
   end
   begin
      id 10
      name LeftArm
      direction 1.000000 0.000000 0.000000
      length 10.259319
      axis 0.0 0.0 -90.0 xyz
      dof rx ry rz
   end
   begin
      id 11
      name LeftForeArm
      direction 1.000000 0.000000 0.000000
      length 9.896984
      axis 0.0 0.0 -90.0 xyz
      dof ry rz rx
   end
   begin
      id 12
      name LeftHand
      direction 0.000000 0.000000 0.000000
      length 0.000000
      axis 0.0 0.0 -90.0 xyz
      dof rx ry rz
   end
   begin
      id 13
      name LeftHand_dum1
      direction 0.000000 0.000000 0.000000
      length 0.000000
      axis 0.0 0.0 -90.0 xyz
   end
   begin
      id 14
      name LeftHand_dum2
      direction 1.000000 0.000000 0.000000
      length 3.937000
      axis 0.0 0.0 -90.0 xyz
   end
   begin
      id 15
      name LeftHandThumb1
      direction 0.000000 0.000000 1.000000
      length 3.937000
      axis 0.0 0.0 -90.0 xyz
      dof rx rz ry
   end
   begin
      id 16
      name RightShoulder
      direction -1.000000 0.000000 0.000000
      length 7.084015
      axis 0.0 0.0 90.0 xyz
      dof rx ry rz
   end
   begin
      id 17
      name RightArm
      direction -1.000000 0.000000 0.000000
      length 10.259319
      axis 0.0 0.0 90.0 xyz
      dof rx ry rz
   end
   begin
      id 18
      name RightForeArm
      direction -1.000000 0.000000 0.000000
      length 9.896984
      axis 0.0 0.0 90.0 xyz
      dof ry rz rx
   end
   begin
      id 19
      name RightHand
      direction 0.000000 0.000000 0.000000
      length 0.000000
      axis 0.0 0.0 90.0 xyz
      dof rx ry rz
   end
   begin
      id 20
      name RightHand_dum1
      direction 0.000000 0.000000 0.000000
      length 0.000000
      axis 0.0 0.0 90.0 xyz
   end
   begin
      id 21
      name RightHand_dum2
      direction -1.000000 0.000000 0.000000
      length 3.937000
      axis 0.0 0.0 90.0 xyz
   end
   begin
      id 22
      name RightHandThumb1
      direction 0.000000 0.000000 1.000000
      length 3.937000
      axis 0.0 0.0 90.0 xyz
      dof rx rz ry
   end
   begin
      id 23
      name LeftUpLeg
      direction 0.000000 -1.000000 0.000000
      length 19.114733
      axis 0.0 0.0 0.0 xyz
      dof rx ry rz
   end
   begin
      id 24
      name LeftLeg
      direction 0.000000 -1.000000 0.000000
      length 16.045604
      axis 0.0 0.0 0.0 xyz
      dof rx ry rz
   end
   begin
      id 25
      name LeftFoot
      direction 0.000000 -0.258819 0.965926
      length 5.543155
      axis 15.0 0.0 0.0 xyz
      dof rx ry rz
   end
   begin
      id 26
      name LeftToeBase
      direction 0.000000 0.000000 1.000000
      length 2.952750
      axis 0.0 0.0 0.0 xyz
      dof rx ry rz
   end
   begin
      id 27
      name RightUpLeg
      direction 0.000000 -1.000000 0.000000
      length 19.114733
      axis 0.0 0.0 0.0 xyz
      dof rx ry rz
   end
   begin
      id 28
      name RightLeg
      direction 0.000000 -1.000000 0.000000
      length 16.045604
      axis 0.0 0.0 0.0 xyz
      dof rx ry rz
   end
   begin
      id 29
      name RightFoot
      direction 0.000000 -0.258819 0.965926
      length 5.543155
      axis 15.0 0.0 0.0 xyz
      dof rx ry rz
   end
   begin
      id 30
      name RightToeBase
      direction 0.000000 0.000000 1.000000
      length 2.952750
      axis 0.0 0.0 0.0 xyz
      dof rx ry rz
   end
:hierarchy
   begin
      root Spine_dum LeftUpLeg_dum RightUpLeg_dum
      Spine_dum Spine
      LeftUpLeg_dum LeftUpLeg
      RightUpLeg_dum RightUpLeg
      Spine Spine_dum1 Spine_dum2 Spine_dum3
      Spine_dum1 Head
      Spine_dum2 LeftShoulder
      Spine_dum3 RightShoulder
      LeftShoulder LeftArm
      LeftArm LeftForeArm
      LeftForeArm LeftHand
      LeftHand LeftHand_dum1 LeftHand_dum2
      LeftHand_dum1 LeftHandThumb1
      RightShoulder RightArm
      RightArm RightForeArm
      RightForeArm RightHand
      RightHand RightHand_dum1 RightHand_dum2
      RightHand_dum1 RightHandThumb1
      LeftUpLeg LeftLeg
      LeftLeg LeftFoot
      LeftFoot LeftToeBase
      RightUpLeg RightLeg
      RightLeg RightFoot
      RightFoot RightToeBase
   end

# File created by Blade
# Date/Time:  Tue Jan 27 17:16:27 2015
# Frame Rate: 120.000 fps
#------------------------------------------------------
:FULLY-SPECIFIED
:DEGREES
2433
root -2.204478 36.572857 2.428020 8.363541 43.660399 8.546919
Spine 6.646634 1.134340 -5.589168
Head -7.265727 -3.391906 5.180739
LeftShoulder 5.451483 -17.656918 9.980002
LeftArm 12.198658 -11.943983 -40.962202
LeftForeArm 3.923270 -0.000000 60.026109
LeftHand -14.631350 -0.000000 57.969180
LeftHandThumb1 -26.253704 0.000000 33.147579
RightShoulder -3.227914 -15.994734 1.391410
RightArm 15.991923 -11.855578 47.422657
RightForeArm -180.271989 0.000000 51.107351
RightHand -1.741861 -0.000000 8.348034
RightHandThumb1 -24.326973 -0.000000 -32.862282
LeftUpLeg -64.047584 28.790202 1.763976
LeftLeg 87.095938 -0.000000 -0.000000
LeftFoot -6.831780 6.505801 -30.100559
LeftToeBase 16.504951 -0.000000 -0.000000
RightUpLeg -11.432754 -10.985741 2.912028
RightLeg 24.181259 -0.000000 -0.000000
RightFoot -21.925891 -14.895344 3.238969
RightToeBase 4.645191 -0.000000 -0.000000
2434
root -2.205579 36.575580 2.431928 8.424869 43.622467 8.581661
Spine 6.604587 1.139975 -5.590816
Head -7.233023 -3.348293 5.120045
LeftShoulder 5.417275 -17.630796 9.987922
LeftArm 12.195828 -11.882747 -40.894653
LeftForeArm 3.807785 -0.000000 59.934789
LeftHand -14.595654 -0.000000 57.913863
LeftHandThumb1 -26.253704 0.000000 33.147579
RightShoulder -3.238247 -16.013352 1.405824
RightArm 15.905097 -11.946925 47.462404
RightForeArm -180.382361 -0.000000 50.835201
RightHand -1.676331 -0.000000 8.036653
RightHandThumb1 -24.326973 -0.000000 -32.862282
LeftUpLeg -64.096718 28.781795 1.735591
LeftLeg 87.060102 -0.000000 -0.000000
LeftFoot -6.860708 6.545720 -30.068467
LeftToeBase 16.510298 -0.000000 -0.000000
RightUpLeg -11.459207 -11.017097 2.896939
RightLeg 24.166620 -0.000000 -0.000000
RightFoot -21.911925 -14.849654 3.222108
RightToeBase 4.622379 -0.000000 -0.000000
2435
root -2.206561 36.578510 2.436489 8.489617 43.583599 8.616630
Spine 6.555759 1.143407 -5.592852
Head -7.190717 -3.315034 5.071255
LeftShoulder 5.397919 -17.613818 9.974752
LeftArm 12.170636 -11.838872 -40.811105
LeftForeArm 3.724813 -0.000000 59.849983
LeftHand -14.598665 -0.000000 57.882600
LeftHandThumb1 -26.253704 0.000000 33.147579
RightShoulder -3.257277 -16.033209 1.407206
RightArm 15.818822 -12.018172 47.537776
RightForeArm -180.449485 -0.000000 50.505056
RightHand -1.737746 -0.000000 7.948895
RightHandThumb1 -24.326973 -0.000000 -32.862282
LeftUpLeg -64.141780 28.777132 1.708945
LeftLeg 87.028814 -0.000000 -0.000000
LeftFoot -6.888043 6.544715 -30.097765
LeftToeBase 16.435433 -0.000000 -0.000000
RightUpLeg -11.486850 -11.090617 2.881635
RightLeg 24.143149 -0.000000 -0.000000
RightFoot -21.884591 -14.771228 3.151383
RightToeBase 4.568259 -0.000000 -0.000000
2436
root -2.204517 36.581457 2.441989 8.527398 43.580010 8.641423
Spine 6.532873 1.124747 -5.566486
Head -7.173825 -3.269860 5.032597
LeftShoulder 5.379453 -17.619886 9.927880
LeftArm 12.158430 -11.821581 -40.755865
LeftForeArm 3.708873 0.000000 59.765401
LeftHand -14.624734 -0.000000 57.836267
LeftHandThumb1 -26.253704 0.000000 33.147579
RightShoulder -3.325739 -16.067685 1.454053
RightArm 15.770695 -12.145148 47.515045
RightForeArm -180.358242 -0.000000 50.179435
RightHand -1.640591 -0.000000 7.746668
RightHandThumb1 -24.326973 -0.000000 -32.862282
LeftUpLeg -64.169283 28.743751 1.697125
LeftLeg 86.998891 -0.000000 -0.000000
LeftFoot -6.852836 6.560777 -29.988759
LeftToeBase 16.202059 -0.000000 -0.000000
RightUpLeg -11.484607 -11.118069 2.866328
RightLeg 24.118849 -0.000000 -0.000000
RightFoot -21.884704 -14.739323 3.167116
RightToeBase 4.579833 -0.000000 -0.000000
